<?xml version="1.0" standalone="no"?><!DOCTYPE svg PUBLIC "-//W3C//DTD SVG 1.1//EN" "http://www.w3.org/Graphics/SVG/1.1/DTD/svg11.dtd"><svg t="1782041185181" class="icon" viewBox="0 0 1024 1024" version="1.1" xmlns="http://www.w3.org/2000/svg" p-id="10431" xmlns:xlink="http://www.w3.org/1999/xlink" width="200" height="200"><path d="M0 511.025822a510.933043 510.933043 0 1 0 1021.866087 0A510.933043 510.933043 0 1 0 0 510.840265z" fill="#702C90" p-id="10432"></path><path d="M874.347739 151.693395a511.025822 511.025822 0 0 1-722.654344 722.654344z" fill="#5F2C80" p-id="10433"></path><path d="M1010.732627 617.628703l-219.700281-231.947087L757.817523 417.504757l-27.276978-28.761439-69.769683 65.872973-60.677358-64.017396-29.50367 27.83365-82.851499-82.851499-38.039323 37.946543-36.276524-36.276524-34.792063 34.792063 36.276524 36.183745-27.83365 27.833651-93.335508-93.428287-19.483555 19.205219L250.502854 338.642747l-34.792063 34.792063 274.903688 274.71813-49.172783 49.172783-18.555767-18.555767-15.494065 15.494065-15.494066-15.494065-24.029718 24.029718 295.964483 295.964483a512.046389 512.046389 0 0 0 346.900064-381.135454z" fill="#4F286E" p-id="10434"></path><path d="M707.995289 426.78264C693.057896 430.864909 556.023557 537.096675 547.395125 563.167527a1020.567183 1020.567183 0 0 0 2.133914 109.386247c9.277883 2.041134 74.223068 0 86.191537 2.226692l-1.391682 26.998641c-11.782912-0.927788-94.541633-0.649452-141.76606-0.649452-24.029718 0-101.221709 2.597807-124.880312 1.948355l4.082269-25.792516c12.989037-0.927788 66.800761 2.41225 78.583673-10.205672 5.937845-6.216182 4.082269-89.16046 2.041135-103.262843-4.917278-14.844614-124.973091-164.867989-156.332337-189.918275h-80.903144v-37.853764h272.676996v2.597807h0.927788l-0.927788 6.40174v28.761439h-82.202048c37.111534 53.533388 89.16046 118.293014 111.334602 149.373924l110.035698-99.458911h-64.945185l-9.277883-37.760986h238.9055l-1.762798 2.690586h0.835009l-17.071305 24.771949h-0.556673l-6.865634 10.205672h-44.069947z m78.027 236.771587l-21.153575-1.020567-23.473045-2.876144v40.358793l18.555767 1.57724 20.040228 1.484461 5.845067-39.523783z m41.008245-192.979977c-7.14397 0-71.903597-6.40174-80.346471-8.071758l1.020567 170.620277 37.111534 2.876144z" fill="#FFFFFF" p-id="10435"></path></svg>