<?xml version="1.0" standalone="no"?><!DOCTYPE svg PUBLIC "-//W3C//DTD SVG 1.1//EN" "http://www.w3.org/Graphics/SVG/1.1/DTD/svg11.dtd"><svg t="1782041232640" class="icon" viewBox="0 0 1024 1024" version="1.1" xmlns="http://www.w3.org/2000/svg" p-id="13661" xmlns:xlink="http://www.w3.org/1999/xlink" width="200" height="200"><path d="M810.666667 85.333333a128 128 0 0 1 128 128v597.333334a128 128 0 0 1-128 128H213.333333a128 128 0 0 1-128-128V213.333333a128 128 0 0 1 128-128h597.333334zM387.541333 263.125333h-96l174.250667 380.416v152.917334h92.416v-90.666667c0-69.333333-7.082667-88.917333-33.706667-145.792l-136.96-296.874667z m344.917334 0h-94.250667l-113.749333 257.749334H618.666667l113.792-257.749334z" fill="#FC3F1D" p-id="13662"></path></svg>